<svg width="31" height="38" viewBox="0 0 31 38" xmlns="http://www.w3.org/2000/svg"><title>icon-apple</title><path d="M20.662 6.13C21.925 4.547 22.79 2.39 22.55.2c-1.83.082-4.115 1.27-5.433 2.82-1.164 1.366-2.205 3.606-1.936 5.71 2.056.155 4.164-1.04 5.483-2.6m4.625 13.747c-.042-4.675 3.815-6.95 3.99-7.055-2.184-3.195-5.57-3.63-6.758-3.666-2.844-.3-5.602 1.707-7.05 1.707-1.477 0-3.708-1.678-6.112-1.628-3.092.047-5.986 1.844-7.573 4.634C-1.49 19.56.953 27.92 4.09 32.52c1.57 2.252 3.405 4.765 5.805 4.678 2.35-.097 3.226-1.502 6.06-1.502 2.81 0 3.633 1.502 6.08 1.444 2.522-.04 4.11-2.262 5.624-4.535 1.812-2.58 2.54-5.123 2.57-5.254-.06-.02-4.895-1.87-4.944-7.472" fill="#FF2B3D" fill-rule="evenodd"/></svg>