<svg width="52" height="40" viewBox="0 0 52 40" xmlns="http://www.w3.org/2000/svg"><title>icon-twitter-big</title><path d="M52 4.735c-1.913.803-3.97 1.346-6.127 1.59 2.202-1.25 3.894-3.23 4.69-5.587-2.06 1.158-4.344 1.998-6.774 2.45C41.84 1.228 39.07 0 36 0c-5.892 0-10.67 4.52-10.67 10.098 0 .79.095 1.562.277 2.3C16.742 11.98 8.88 7.96 3.62 1.85c-.918 1.49-1.444 3.224-1.444 5.075 0 3.503 1.883 6.594 4.746 8.405-1.75-.053-3.394-.507-4.832-1.263-.002.042-.002.084-.002.127 0 4.892 3.678 8.973 8.558 9.902-.895.23-1.837.354-2.81.354-.688 0-1.356-.064-2.008-.18 1.358 4.01 5.298 6.93 9.967 7.01-3.652 2.71-8.252 4.324-13.25 4.324-.86 0-1.71-.048-2.545-.14C4.72 38.327 10.33 40 16.354 40c19.623 0 30.354-15.387 30.354-28.732 0-.437-.01-.873-.03-1.306C48.76 8.538 50.57 6.76 52 4.735z" fill="#FF2B3D" fill-rule="evenodd"/></svg>