<svg width="26" height="20" viewBox="0 0 26 20" xmlns="http://www.w3.org/2000/svg"><title>icon-twitter</title><path d="M26 2.367c-.957.402-1.985.673-3.064.796 1.102-.625 1.948-1.615 2.346-2.794-1.03.577-2.173.997-3.388 1.223C20.92.613 19.534 0 18 0c-2.945 0-5.333 2.26-5.333 5.05 0 .395.047.78.138 1.15C8.37 5.99 4.44 3.98 1.81.924c-.46.746-.722 1.613-.722 2.538 0 1.752.942 3.298 2.373 4.203-.873-.026-1.695-.253-2.414-.632v.064c0 2.446 1.838 4.487 4.278 4.95-.447.116-.92.178-1.405.178-.345 0-.68-.032-1.005-.09.68 2.005 2.65 3.465 4.983 3.506-1.825 1.356-4.125 2.163-6.625 2.163-.43 0-.855-.024-1.272-.07C2.36 19.163 5.166 20 8.178 20c9.81 0 15.177-7.693 15.177-14.366 0-.22-.005-.436-.016-.653C24.38 4.27 25.285 3.38 26 2.37z" fill="#FFF" fill-rule="evenodd"/></svg>